<?xml version="1.0" encoding="UTF-8" standalone="no"?>
<!-- Created with Inkscape (http://www.inkscape.org/) -->
<svg xmlns:inkscape="http://www.inkscape.org/namespaces/inkscape" xmlns:rdf="http://www.w3.org/1999/02/22-rdf-syntax-ns#" xmlns="http://www.w3.org/2000/svg" xmlns:sodipodi="http://sodipodi.sourceforge.net/DTD/sodipodi-0.dtd" xmlns:ns1="http://sozi.baierouge.fr" xmlns:cc="http://creativecommons.org/ns#" xmlns:xlink="http://www.w3.org/1999/xlink" xmlns:dc="http://purl.org/dc/elements/1.1/" id="svg2" viewBox="0 0 172.9 302.09" version="1.1" inkscape:version="0.91 r13725">
  <defs id="defs4">
    <linearGradient id="linearGradient3063">
      <stop id="stop3065" style="stop-color:#ffff00" offset="0"/>
      <stop id="stop3067" style="stop-color:#ffff00;stop-opacity:0" offset="1"/>
    </linearGradient>
    <radialGradient id="radialGradient3069" xlink:href="#linearGradient3063" gradientUnits="userSpaceOnUse" cy="378.59" cx="434.34" gradientTransform="matrix(.024884 2.369 -1.6036 .016844 990.76 -598.63)" r="86.443"/>
    <radialGradient id="radialGradient3841" xlink:href="#linearGradient3063" gradientUnits="userSpaceOnUse" cy="376.21" cx="402.59" gradientTransform="matrix(-.0043308 1.1712 -1.6037 -.0059301 1002 -107.85)" r="86.443"/>
    <radialGradient id="radialGradient3856" gradientUnits="userSpaceOnUse" cy="392.24" cx="386.35" gradientTransform="matrix(-.12413 5.1809 -4.978 -.11927 2378.8 -1576.8)" r="31.062">
      <stop id="stop3849" style="stop-color:#ffffff" offset="0"/>
      <stop id="stop3851" style="stop-color:#ffff00;stop-opacity:0" offset="1"/>
    </radialGradient>
    <linearGradient id="linearGradient3879" y2="604.36" gradientUnits="userSpaceOnUse" x2="383.86" y1="536.17" x1="359.61">
      <stop id="stop3872" style="stop-color:#ffffff" offset="0"/>
      <stop id="stop3874" style="stop-color:#666666;stop-opacity:0" offset="1"/>
    </linearGradient>
    <filter id="filter3881" height="2.9514" width="3.6145" color-interpolation-filters="sRGB" y="-.97570" x="-1.3073">
      <feGaussianBlur id="feGaussianBlur3883" stdDeviation="93.625182"/>
    </filter>
  </defs>
  <g id="layer1" transform="translate(-314.34 -341.16)">
    <path id="path3047" style="stroke:#000000;stroke-width:1px;fill:url(#radialGradient3069)" d="m435.84 571.94c2.2174-25.693 9.4994-50.94 21.306-73.867 5.6318-10.936 12.27-21.332 17.88-32.279 5.6101-10.948 10.226-22.619 11.406-34.864 1.3438-13.944-1.9062-28.186-8.4999-40.546-6.6-12.35-16.45-22.85-27.93-30.87-14.299-9.9877-31.208-16.204-48.571-17.857-29.343 0.84551-57.828 16.967-73.658 41.689-8.8846 13.875-13.902 30.446-12.77 46.883 1.1678 16.966 8.6468 32.816 16.811 47.735 6.5894 12.041 13.735 23.836 18.903 36.551 7.2864 17.926 10.486 37.498 9.2857 56.811l75.837 0.62763"/>
    <path id="path3051" style="stroke:#000000;stroke-width:1px;fill:#666666" d="m359.61 571.53 3.0304 13.637 4.5457 4.0406-4.5457 6.0609 3.0305 5.5558-4.5457 5.5558 5.0508 4.0406-4.5457 4.5457 18.183 16.162 40.911-0.50507 9.5964-6.566 0.50508-7.0711 4.0406-5.5558-2.5254-7.0711 4.5457-1.5152-4.0406-7.5761 3.0304-4.5457-4.0406-5.0508 3.5355-13.132-75.761-1.0102"/>
    <path id="path3055" style="stroke:#000000;stroke-width:1px;fill:#000000" d="m379.31 632.14 5.5558 8.0812h4.5457l4.5457 2.5254 6.566-0.50508 3.5355-1.0102 6.566-0.50508 8.5863-9.5964-39.901 1.0102"/>
    <path id="path3839" style="filter:url(#filter3881);fill:url(#radialGradient3841)" d="m435.33 571.94c2.2174-25.693 9.4994-50.94 21.306-73.867 5.6318-10.936 12.27-21.332 17.88-32.279 5.6101-10.948 10.226-22.619 11.406-34.864 1.3438-13.944-1.9062-28.186-8.4999-40.546s-16.444-22.861-27.929-30.883c-14.299-9.9877-31.208-16.204-48.571-17.857-29.343 0.84551-57.828 16.967-73.658 41.689-8.8846 13.875-13.902 30.446-12.77 46.883 1.1678 16.966 8.6468 32.816 16.811 47.735 6.5894 12.041 13.735 23.836 18.903 36.551 7.2864 17.926 10.486 37.498 9.2857 56.811l75.837 0.62763"/>
    <path id="path3845" style="fill:url(#radialGradient3856)" d="m463.15 414.96c0 18.41-51.788 61.114-68.943 61.114s-72.478-41.694-72.478-60.104 44.95-63.849 61.872-66.67c19.689-3.283 48.864 3.935 65.906 18.539 18.753 16.071 13.644 37.915 13.644 47.121z"/>
    <path id="path3868" style="fill:url(#linearGradient3879)" d="m422.5 601.83c-12.627 21.403-2.8407 29.8-18.183 29.8s-66.502 35.957-34.345-35.355c3.1533-6.9929-9.0125-17.141-3.9855-22.168s40.256 0.95504 47.927 0.95504c15.342 0 16.382 13.555 8.5863 26.769z"/>
  </g>
  <metadata>
    <rdf:RDF>
      <cc:Work>
        <dc:format>image/svg+xml</dc:format>
        <dc:type rdf:resource="http://purl.org/dc/dcmitype/StillImage"/>
        <cc:license rdf:resource="http://creativecommons.org/licenses/publicdomain/"/>
        <dc:publisher>
          <cc:Agent rdf:about="http://openclipart.org/">
            <dc:title>Openclipart</dc:title>
          </cc:Agent>
        </dc:publisher>
      </cc:Work>
      <cc:License rdf:about="http://creativecommons.org/licenses/publicdomain/">
        <cc:permits rdf:resource="http://creativecommons.org/ns#Reproduction"/>
        <cc:permits rdf:resource="http://creativecommons.org/ns#Distribution"/>
        <cc:permits rdf:resource="http://creativecommons.org/ns#DerivativeWorks"/>
      </cc:License>
    </rdf:RDF>
  </metadata>
</svg>
